Highland Code.ufo
<glyph name="asterisk" format="1">
  <advance width="1228"/>
  <unicode hex="002A"/>
  <outline>
    <contour>
      <point x="1135" y="701"/>
      <point x="1108" y="660"/>
      <point x="1050" y="647" type="curve" smooth="yes"/>
      <point x="562" y="548" type="line"/>
      <point x="539" y="616" type="line"/>
      <point x="995" y="824" type="line" smooth="yes"/>
      <point x="1049" y="848"/>
      <point x="1094" y="829"/>
      <point x="1115" y="765" type="curve" smooth="yes"/>
    </contour>
    <contour>
      <point x="243" y="207"/>
      <point x="239" y="254"/>
      <point x="279" y="298" type="curve" smooth="yes"/>
      <point x="623" y="678" type="line"/>
      <point x="682" y="634" type="line"/>
      <point x="431" y="194" type="line" smooth="yes"/>
      <point x="400" y="143"/>
      <point x="353" y="128"/>
      <point x="298" y="167" type="curve" smooth="yes"/>
    </contour>
    <contour>
      <point x="681" y="1127"/>
      <point x="713" y="1089"/>
      <point x="707" y="1030" type="curve" smooth="yes"/>
      <point x="649" y="536" type="line"/>
      <point x="578" y="536" type="line"/>
      <point x="521" y="1030" type="line" smooth="yes"/>
      <point x="514" y="1089"/>
      <point x="547" y="1127"/>
      <point x="614" y="1127" type="curve" smooth="yes"/>
    </contour>
    <contour>
      <point x="133" y="829"/>
      <point x="179" y="848"/>
      <point x="233" y="824" type="curve" smooth="yes"/>
      <point x="688" y="616" type="line"/>
      <point x="666" y="548" type="line"/>
      <point x="177" y="647" type="line" smooth="yes"/>
      <point x="119" y="660"/>
      <point x="92" y="701"/>
      <point x="113" y="765" type="curve" smooth="yes"/>
    </contour>
    <contour>
      <point x="875" y="127"/>
      <point x="827" y="143"/>
      <point x="797" y="194" type="curve" smooth="yes"/>
      <point x="545" y="634" type="line"/>
      <point x="604" y="678" type="line"/>
      <point x="948" y="298" type="line" smooth="yes"/>
      <point x="988" y="254"/>
      <point x="984" y="206"/>
      <point x="930" y="167" type="curve" smooth="yes"/>
    </contour>
  </outline>
</glyph>
<glyph name="comma" format="1">
  <advance width="1228"/>
  <unicode hex="002C"/>
  <outline>
    <contour>
      <point x="530" y="294" type="line" smooth="yes"/>
      <point x="502" y="294"/>
      <point x="484" y="280"/>
      <point x="478" y="254" type="curve" smooth="yes"/>
      <point x="374" y="-228" type="line" smooth="yes"/>
      <point x="365" y="-270"/>
      <point x="388" y="-294"/>
      <point x="444" y="-294" type="curve" smooth="yes"/>
      <point x="490" y="-294"/>
      <point x="519" y="-281"/>
      <point x="530" y="-253" type="curve" smooth="yes"/>
      <point x="722" y="231" type="line" smooth="yes"/>
      <point x="736" y="266"/>
      <point x="727" y="294"/>
      <point x="694" y="294" type="curve" smooth="yes"/>
    </contour>
  </outline>
</glyph>
<glyph name="five" format="1">
  <advance width="1228"/>
  <unicode hex="0035"/>
  <outline>
    <contour>
      <point x="351" y="1187" type="line" smooth="yes"/>
      <point x="295" y="1187"/>
      <point x="278" y="1168"/>
      <point x="276" y="1122" type="curve" smooth="yes"/>
      <point x="256" y="622" type="line" smooth="yes"/>
      <point x="254" y="576"/>
      <point x="275" y="557"/>
      <point x="331" y="557" type="curve" smooth="yes"/>
      <point x="354" y="557"/>
      <point x="370" y="560"/>
      <point x="381" y="567" type="curve" smooth="yes"/>
      <point x="446" y="612"/>
      <point x="513" y="638"/>
      <point x="608" y="638" type="curve" smooth="yes"/>
      <point x="759" y="638"/>
      <point x="854" y="534"/>
      <point x="854" y="386" type="curve" smooth="yes"/>
      <point x="854" y="230"/>
      <point x="753" y="126"/>
      <point x="588" y="126" type="curve" smooth="yes"/>
      <point x="485" y="126"/>
      <point x="380" y="166"/>
      <point x="296" y="226" type="curve" smooth="yes"/>
      <point x="267" y="248"/>
      <point x="233" y="243"/>
      <point x="204" y="197" type="curve" smooth="yes"/>
      <point x="176" y="151"/>
      <point x="187" y="120"/>
      <point x="219" y="97" type="curve"/>
      <point x="322" y="25"/>
      <point x="458" y="-22"/>
      <point x="588" y="-22" type="curve" smooth="yes"/>
      <point x="846" y="-22"/>
      <point x="1008" y="152"/>
      <point x="1008" y="386" type="curve" smooth="yes"/>
      <point x="1008" y="619"/>
      <point x="865" y="786"/>
      <point x="621" y="786" type="curve" smooth="yes"/>
      <point x="542" y="786"/>
      <point x="470" y="766"/>
      <point x="406" y="730" type="curve"/>
      <point x="419" y="1051" type="line"/>
      <point x="485" y="1187" type="line"/>
    </contour>
    <contour>
      <point x="384" y="1187" type="line"/>
      <point x="384" y="1043" type="line"/>
      <point x="885" y="1043" type="line" smooth="yes"/>
      <point x="930" y="1043"/>
      <point x="948" y="1063"/>
      <point x="948" y="1115" type="curve" smooth="yes"/>
      <point x="948" y="1167"/>
      <point x="930" y="1187"/>
      <point x="885" y="1187" type="curve" smooth="yes"/>
    </contour>
  </outline>
</glyph>
<glyph name="less" format="1">
  <advance width="1228"/>
  <unicode hex="003C"/>
  <outline>
    <contour>
      <point x="340" y="583" type="line"/>
      <point x="1012" y="905" type="line" smooth="yes"/>
      <point x="1054" y="925"/>
      <point x="1064" y="954"/>
      <point x="1041" y="1000" type="curve" smooth="yes"/>
      <point x="1019" y="1044"/>
      <point x="990" y="1058"/>
      <point x="949" y="1038" type="curve" smooth="yes"/>
      <point x="172" y="657" type="line" smooth="yes"/>
      <point x="140" y="641"/>
      <point x="125" y="623"/>
      <point x="125" y="583" type="curve" smooth="yes"/>
      <point x="125" y="543"/>
      <point x="140" y="525"/>
      <point x="172" y="509" type="curve" smooth="yes"/>
      <point x="949" y="128" type="line" smooth="yes"/>
      <point x="990" y="108"/>
      <point x="1019" y="122"/>
      <point x="1041" y="166" type="curve" smooth="yes"/>
      <point x="1064" y="212"/>
      <point x="1054" y="241"/>
      <point x="1012" y="261" type="curve" smooth="yes"/>
    </contour>
  </outline>
</glyph>
<glyph name="greater" format="1">
  <advance width="1228"/>
  <unicode hex="003E"/>
  <outline>
    <contour>
      <point x="888" y="583" type="line"/>
      <point x="216" y="261" type="line" smooth="yes"/>
      <point x="174" y="241"/>
      <point x="164" y="212"/>
      <point x="187" y="166" type="curve" smooth="yes"/>
      <point x="209" y="122"/>
      <point x="238" y="108"/>
      <point x="279" y="128" type="curve" smooth="yes"/>
      <point x="1056" y="509" type="line" smooth="yes"/>
      <point x="1088" y="525"/>
      <point x="1103" y="543"/>
      <point x="1103" y="583" type="curve" smooth="yes"/>
      <point x="1103" y="623"/>
      <point x="1088" y="641"/>
      <point x="1056" y="657" type="curve" smooth="yes"/>
      <point x="279" y="1038" type="line" smooth="yes"/>
      <point x="238" y="1058"/>
      <point x="209" y="1044"/>
      <point x="187" y="1000" type="curve" smooth="yes"/>
      <point x="164" y="954"/>
      <point x="174" y="925"/>
      <point x="216" y="905" type="curve" smooth="yes"/>
    </contour>
  </outline>
</glyph>
<glyph name="B" format="1">
  <advance width="1228"/>
  <unicode hex="0042"/>
  <outline>
    <contour>
      <point x="268" y="1187" type="line" smooth="yes"/>
      <point x="223" y="1187"/>
      <point x="205" y="1169"/>
      <point x="205" y="1119" type="curve" smooth="yes"/>
      <point x="205" y="68" type="line" smooth="yes"/>
      <point x="205" y="18"/>
      <point x="223" y="0"/>
      <point x="268" y="0" type="curve" smooth="yes"/>
      <point x="690" y="0" type="line" smooth="yes"/>
      <point x="936" y="0"/>
      <point x="1074" y="126"/>
      <point x="1074" y="336" type="curve" smooth="yes"/>
      <point x="1074" y="480"/>
      <point x="1000" y="576"/>
      <point x="874" y="623" type="curve"/>
      <point x="957" y="671"/>
      <point x="1008" y="750"/>
      <point x="1008" y="858" type="curve" smooth="yes"/>
      <point x="1008" y="1051"/>
      <point x="883" y="1187"/>
      <point x="644" y="1187" type="curve" smooth="yes"/>
    </contour>
    <contour>
      <point x="832" y="531"/>
      <point x="920" y="467"/>
      <point x="920" y="336" type="curve" smooth="yes"/>
      <point x="920" y="207"/>
      <point x="825" y="144"/>
      <point x="670" y="144" type="curve" smooth="yes"/>
      <point x="355" y="144" type="line"/>
      <point x="355" y="531" type="line"/>
      <point x="665" y="531" type="line" smooth="yes"/>
    </contour>
    <contour>
      <point x="779" y="1043"/>
      <point x="854" y="979"/>
      <point x="854" y="858" type="curve" smooth="yes"/>
      <point x="854" y="742"/>
      <point x="778" y="675"/>
      <point x="622" y="675" type="curve" smooth="yes"/>
      <point x="355" y="675" type="line"/>
      <point x="355" y="1043" type="line"/>
      <point x="622" y="1043" type="line" smooth="yes"/>
    </contour>
  </outline>
</glyph>
<glyph name="W" format="1">
  <advance width="1228"/>
  <unicode hex="0057"/>
  <outline>
    <contour>
      <point x="1029" y="1202"/>
      <point x="1009" y="1186"/>
      <point x="1003" y="1139" type="curve" smooth="yes"/>
      <point x="891" y="258" type="line"/>
      <point x="684" y="845" type="line" smooth="yes"/>
      <point x="675" y="871"/>
      <point x="654" y="885"/>
      <point x="610" y="885" type="curve" smooth="yes"/>
      <point x="566" y="885"/>
      <point x="545" y="871"/>
      <point x="536" y="845" type="curve" smooth="yes"/>
      <point x="329" y="258" type="line"/>
      <point x="217" y="1139" type="line" smooth="yes"/>
      <point x="211" y="1186"/>
      <point x="191" y="1202"/>
      <point x="135" y="1196" type="curve" smooth="yes"/>
      <point x="79" y="1189"/>
      <point x="61" y="1169"/>
      <point x="68" y="1122" type="curve" smooth="yes"/>
      <point x="217" y="43" type="line" smooth="yes"/>
      <point x="224" y="-6"/>
      <point x="252" y="-22"/>
      <point x="303" y="-22" type="curve" smooth="yes"/>
      <point x="354" y="-22"/>
      <point x="387" y="-2"/>
      <point x="403" y="43" type="curve" smooth="yes"/>
      <point x="610" y="629" type="line"/>
      <point x="817" y="43" type="line" smooth="yes"/>
      <point x="833" y="-2"/>
      <point x="866" y="-22"/>
      <point x="917" y="-22" type="curve" smooth="yes"/>
      <point x="968" y="-22"/>
      <point x="996" y="-6"/>
      <point x="1003" y="43" type="curve" smooth="yes"/>
      <point x="1152" y="1122" type="line" smooth="yes"/>
      <point x="1159" y="1169"/>
      <point x="1141" y="1189"/>
      <point x="1085" y="1196" type="curve" smooth="yes"/>
    </contour>
  </outline>
</glyph>
<glyph name="X" format="1">
  <advance width="1228"/>
  <unicode hex="0058"/>
  <outline>
    <contour>
      <point x="972" y="1210"/>
      <point x="943" y="1211"/>
      <point x="916" y="1172" type="curve" smooth="yes"/>
      <point x="576" y="657" type="line"/>
      <point x="539" y="623" type="line"/>
      <point x="164" y="89" type="line" smooth="yes"/>
      <point x="137" y="49"/>
      <point x="148" y="21"/>
      <point x="194" y="0" type="curve" smooth="yes"/>
      <point x="245" y="-23"/>
      <point x="274" y="-25"/>
      <point x="301" y="15" type="curve" smooth="yes"/>
      <point x="638" y="516" type="line"/>
      <point x="677" y="552" type="line"/>
      <point x="1053" y="1098" type="line" smooth="yes"/>
      <point x="1081" y="1138"/>
      <point x="1069" y="1166"/>
      <point x="1023" y="1187" type="curve" smooth="yes"/>
    </contour>
    <contour>
      <point x="171" y="1166"/>
      <point x="159" y="1138"/>
      <point x="187" y="1098" type="curve" smooth="yes"/>
      <point x="552" y="567" type="line"/>
      <point x="584" y="537" type="line"/>
      <point x="939" y="15" type="line" smooth="yes"/>
      <point x="965" y="-25"/>
      <point x="995" y="-23"/>
      <point x="1046" y="0" type="curve" smooth="yes"/>
      <point x="1092" y="21"/>
      <point x="1104" y="50"/>
      <point x="1076" y="89" type="curve" smooth="yes"/>
      <point x="696" y="628" type="line"/>
      <point x="667" y="655" type="line"/>
      <point x="324" y="1172" type="line" smooth="yes"/>
      <point x="297" y="1211"/>
      <point x="268" y="1210"/>
      <point x="217" y="1187" type="curve" smooth="yes"/>
    </contour>
  </outline>
</glyph>
<glyph name="c" format="1">
  <advance width="1228"/>
  <unicode hex="0063"/>
  <outline>
    <contour>
      <point x="337" y="946"/>
      <point x="147" y="739"/>
      <point x="147" y="462" type="curve" smooth="yes"/>
      <point x="147" y="185"/>
      <point x="337" y="-22"/>
      <point x="629" y="-22" type="curve" smooth="yes"/>
      <point x="781" y="-22"/>
      <point x="933" y="27"/>
      <point x="1041" y="106" type="curve" smooth="yes"/>
      <point x="1076" y="131"/>
      <point x="1084" y="167"/>
      <point x="1056" y="214" type="curve" smooth="yes"/>
      <point x="1027" y="263"/>
      <point x="992" y="258"/>
      <point x="965" y="237" type="curve" smooth="yes"/>
      <point x="870" y="164"/>
      <point x="751" y="126"/>
      <point x="629" y="126" type="curve" smooth="yes"/>
      <point x="434" y="126"/>
      <point x="305" y="267"/>
      <point x="305" y="462" type="curve" smooth="yes"/>
      <point x="305" y="657"/>
      <point x="434" y="798"/>
      <point x="629" y="798" type="curve" smooth="yes"/>
      <point x="741" y="798"/>
      <point x="849" y="769"/>
      <point x="948" y="701" type="curve" smooth="yes"/>
      <point x="976" y="681"/>
      <point x="1011" y="678"/>
      <point x="1037" y="729" type="curve" smooth="yes"/>
      <point x="1063" y="777"/>
      <point x="1053" y="813"/>
      <point x="1017" y="836" type="curve" smooth="yes"/>
      <point x="905" y="909"/>
      <point x="771" y="946"/>
      <point x="629" y="946" type="curve" smooth="yes"/>
    </contour>
  </outline>
</glyph>
<glyph name="x" format="1">
  <advance width="1228"/>
  <unicode hex="0078"/>
  <outline>
    <contour>
      <point x="965" y="947"/>
      <point x="937" y="945"/>
      <point x="906" y="909" type="curve" smooth="yes"/>
      <point x="597" y="550" type="line"/>
      <point x="552" y="518" type="line"/>
      <point x="184" y="89" type="line" smooth="yes"/>
      <point x="153" y="52"/>
      <point x="165" y="21"/>
      <point x="211" y="0" type="curve" smooth="yes"/>
      <point x="262" y="-23"/>
      <point x="290" y="-21"/>
      <point x="321" y="15" type="curve" smooth="yes"/>
      <point x="648" y="400" type="line"/>
      <point x="697" y="435" type="line"/>
      <point x="1043" y="835" type="line" smooth="yes"/>
      <point x="1075" y="872"/>
      <point x="1062" y="903"/>
      <point x="1016" y="924" type="curve" smooth="yes"/>
    </contour>
    <contour>
      <point x="178" y="903"/>
      <point x="165" y="872"/>
      <point x="197" y="835" type="curve" smooth="yes"/>
      <point x="543" y="435" type="line"/>
      <point x="592" y="400" type="line"/>
      <point x="919" y="15" type="line" smooth="yes"/>
      <point x="950" y="-21"/>
      <point x="978" y="-23"/>
      <point x="1029" y="0" type="curve" smooth="yes"/>
      <point x="1075" y="21"/>
      <point x="1087" y="52"/>
      <point x="1056" y="89" type="curve" smooth="yes"/>
      <point x="688" y="518" type="line"/>
      <point x="643" y="550" type="line"/>
      <point x="334" y="909" type="line" smooth="yes"/>
      <point x="303" y="945"/>
      <point x="275" y="947"/>
      <point x="224" y="924" type="curve" smooth="yes"/>
    </contour>
  </outline>
</glyph>
<glyph name="section" format="1">
  <advance width="1228"/>
  <unicode hex="00A7"/>
  <outline>
    <contour>
      <point x="569" y="1187" type="line" smooth="yes"/>
      <point x="389" y="1187"/>
      <point x="294" y="1087"/>
      <point x="294" y="947" type="curve" smooth="yes"/>
      <point x="294" y="821"/>
      <point x="357" y="744"/>
      <point x="448" y="688" type="curve" smooth="yes"/>
      <point x="781" y="482" type="line" smooth="yes"/>
      <point x="848" y="440"/>
      <point x="881" y="393"/>
      <point x="881" y="333" type="curve" smooth="yes"/>
      <point x="881" y="273"/>
      <point x="847" y="240"/>
      <point x="792" y="210" type="curve"/>
      <point x="870" y="93" type="line"/>
      <point x="972" y="157"/>
      <point x="1035" y="225"/>
      <point x="1035" y="333" type="curve" smooth="yes"/>
      <point x="1035" y="452"/>
      <point x="983" y="535"/>
      <point x="872" y="604" type="curve" smooth="yes"/>
      <point x="539" y="810" type="line" smooth="yes"/>
      <point x="476" y="849"/>
      <point x="448" y="885"/>
      <point x="448" y="943" type="curve" smooth="yes"/>
      <point x="448" y="1007"/>
      <point x="494" y="1043"/>
      <point x="589" y="1043" type="curve" smooth="yes"/>
      <point x="895" y="1043" type="line" smooth="yes"/>
      <point x="940" y="1043"/>
      <point x="958" y="1063"/>
      <point x="958" y="1115" type="curve" smooth="yes"/>
      <point x="958" y="1167"/>
      <point x="940" y="1187"/>
      <point x="895" y="1187" type="curve" smooth="yes"/>
    </contour>
    <contour>
      <point x="256" y="800"/>
      <point x="193" y="732"/>
      <point x="193" y="624" type="curve" smooth="yes"/>
      <point x="193" y="505"/>
      <point x="245" y="422"/>
      <point x="356" y="353" type="curve" smooth="yes"/>
      <point x="689" y="147" type="line" smooth="yes"/>
      <point x="752" y="108"/>
      <point x="780" y="72"/>
      <point x="780" y="14" type="curve" smooth="yes"/>
      <point x="780" y="-50"/>
      <point x="734" y="-86"/>
      <point x="639" y="-86" type="curve" smooth="yes"/>
      <point x="333" y="-86" type="line" smooth="yes"/>
      <point x="288" y="-86"/>
      <point x="270" y="-106"/>
      <point x="270" y="-158" type="curve" smooth="yes"/>
      <point x="270" y="-210"/>
      <point x="288" y="-230"/>
      <point x="333" y="-230" type="curve" smooth="yes"/>
      <point x="659" y="-230" type="line" smooth="yes"/>
      <point x="839" y="-230"/>
      <point x="934" y="-130"/>
      <point x="934" y="10" type="curve" smooth="yes"/>
      <point x="934" y="136"/>
      <point x="871" y="213"/>
      <point x="780" y="269" type="curve" smooth="yes"/>
      <point x="447" y="475" type="line" smooth="yes"/>
      <point x="380" y="517"/>
      <point x="347" y="564"/>
      <point x="347" y="624" type="curve" smooth="yes"/>
      <point x="347" y="684"/>
      <point x="381" y="717"/>
      <point x="436" y="747" type="curve"/>
      <point x="358" y="864" type="line"/>
    </contour>
  </outline>
</glyph>
<glyph name="ordfeminine" format="1">
  <advance width="1228"/>
  <unicode hex="00AA"/>
  <outline>
    <contour>
      <point x="540" y="1209"/>
      <point x="427" y="1180"/>
      <point x="345" y="1128" type="curve" smooth="yes"/>
      <point x="320" y="1112"/>
      <point x="313" y="1085"/>
      <point x="338" y="1042" type="curve" smooth="yes"/>
      <point x="359" y="1005"/>
      <point x="387" y="1000"/>
      <point x="412" y="1015" type="curve" smooth="yes"/>
      <point x="486" y="1058"/>
      <point x="563" y="1080"/>
      <point x="644" y="1080" type="curve" smooth="yes"/>
      <point x="750" y="1080"/>
      <point x="792" y="1029"/>
      <point x="792" y="950" type="curve" smooth="yes"/>
      <point x="792" y="899" type="line"/>
      <point x="719" y="919"/>
      <point x="641" y="927"/>
      <point x="558" y="927" type="curve" smooth="yes"/>
      <point x="390" y="927"/>
      <point x="252" y="859"/>
      <point x="252" y="687" type="curve" smooth="yes"/>
      <point x="252" y="541"/>
      <point x="368" y="465"/>
      <point x="522" y="465" type="curve" smooth="yes"/>
      <point x="632" y="465"/>
      <point x="728" y="511"/>
      <point x="807" y="578" type="curve"/>
      <point x="807" y="524" type="line" smooth="yes"/>
      <point x="807" y="489"/>
      <point x="824" y="474"/>
      <point x="866" y="474" type="curve" smooth="yes"/>
      <point x="868" y="474" type="line" smooth="yes"/>
      <point x="909" y="474"/>
      <point x="927" y="489"/>
      <point x="927" y="524" type="curve" smooth="yes"/>
      <point x="927" y="954" type="line" smooth="yes"/>
      <point x="927" y="1115"/>
      <point x="831" y="1209"/>
      <point x="644" y="1209" type="curve" smooth="yes"/>
    </contour>
    <contour>
      <point x="648" y="801"/>
      <point x="722" y="792"/>
      <point x="792" y="776" type="curve"/>
      <point x="792" y="707" type="line"/>
      <point x="716" y="632"/>
      <point x="630" y="590"/>
      <point x="526" y="590" type="curve" smooth="yes"/>
      <point x="445" y="590"/>
      <point x="393" y="625"/>
      <point x="393" y="690" type="curve" smooth="yes"/>
      <point x="393" y="772"/>
      <point x="466" y="801"/>
      <point x="569" y="801" type="curve" smooth="yes"/>
    </contour>
  </outline>
</glyph>
<glyph name="plusminus" format="1">
  <advance width="1228"/>
  <unicode hex="00B1"/>
  <outline>
    <contour>
      <point x="233" y="814" type="line" smooth="yes"/>
      <point x="188" y="814"/>
      <point x="170" y="794"/>
      <point x="170" y="742" type="curve" smooth="yes"/>
      <point x="170" y="690"/>
      <point x="188" y="670"/>
      <point x="233" y="670" type="curve" smooth="yes"/>
      <point x="995" y="670" type="line" smooth="yes"/>
      <point x="1040" y="670"/>
      <point x="1058" y="690"/>
      <point x="1058" y="742" type="curve" smooth="yes"/>
      <point x="1058" y="794"/>
      <point x="1040" y="814"/>
      <point x="995" y="814" type="curve" smooth="yes"/>
    </contour>
    <contour>
      <point x="233" y="254" type="line" smooth="yes"/>
      <point x="188" y="254"/>
      <point x="170" y="234"/>
      <point x="170" y="182" type="curve" smooth="yes"/>
      <point x="170" y="130"/>
      <point x="188" y="110"/>
      <point x="233" y="110" type="curve" smooth="yes"/>
      <point x="995" y="110" type="line" smooth="yes"/>
      <point x="1040" y="110"/>
      <point x="1058" y="130"/>
      <point x="1058" y="182" type="curve" smooth="yes"/>
      <point x="1058" y="234"/>
      <point x="1040" y="254"/>
      <point x="995" y="254" type="curve" smooth="yes"/>
    </contour>
    <contour>
      <point x="562" y="1126"/>
      <point x="542" y="1108"/>
      <point x="542" y="1063" type="curve" smooth="yes"/>
      <point x="542" y="421" type="line" smooth="yes"/>
      <point x="542" y="376"/>
      <point x="562" y="358"/>
      <point x="614" y="358" type="curve" smooth="yes"/>
      <point x="666" y="358"/>
      <point x="686" y="376"/>
      <point x="686" y="421" type="curve" smooth="yes"/>
      <point x="686" y="1063" type="line" smooth="yes"/>
      <point x="686" y="1108"/>
      <point x="666" y="1126"/>
      <point x="614" y="1126" type="curve" smooth="yes"/>
    </contour>
  </outline>
</glyph>
<glyph name="AE" format="1">
  <advance width="1228"/>
  <unicode hex="00C6"/>
  <outline>
    <contour>
      <point x="519" y="1187" type="line" smooth="yes"/>
      <point x="474" y="1187"/>
      <point x="449" y="1169"/>
      <point x="430" y="1119" type="curve" smooth="yes"/>
      <point x="27" y="84" type="line" smooth="yes"/>
      <point x="10" y="40"/>
      <point x="23" y="15"/>
      <point x="76" y="-2" type="curve" smooth="yes"/>
      <point x="129" y="-19"/>
      <point x="154" y="-8"/>
      <point x="171" y="36" type="curve" smooth="yes"/>
      <point x="323" y="427" type="line"/>
      <point x="339" y="471" type="line"/>
      <point x="550" y="1043" type="line"/>
      <point x="624" y="1043" type="line"/>
      <point x="624" y="1187" type="line"/>
    </contour>
    <contour>
      <point x="255" y="514" type="line"/>
      <point x="255" y="370" type="line"/>
      <point x="624" y="370" type="line"/>
      <point x="624" y="514" type="line"/>
    </contour>
    <contour>
      <point x="679" y="144" type="line"/>
      <point x="679" y="0" type="line"/>
      <point x="1107" y="0" type="line" smooth="yes"/>
      <point x="1152" y="0"/>
      <point x="1170" y="20"/>
      <point x="1170" y="72" type="curve" smooth="yes"/>
      <point x="1170" y="124"/>
      <point x="1152" y="144"/>
      <point x="1107" y="144" type="curve" smooth="yes"/>
    </contour>
    <contour>
      <point x="575" y="1187" type="line"/>
      <point x="575" y="68" type="line" smooth="yes"/>
      <point x="575" y="18"/>
      <point x="593" y="0"/>
      <point x="638" y="0" type="curve"/>
      <point x="725" y="0" type="line"/>
      <point x="725" y="1187" type="line"/>
    </contour>
    <contour>
      <point x="679" y="684" type="line"/>
      <point x="679" y="540" type="line"/>
      <point x="1042" y="540" type="line" smooth="yes"/>
      <point x="1087" y="540"/>
      <point x="1105" y="560"/>
      <point x="1105" y="612" type="curve" smooth="yes"/>
      <point x="1105" y="664"/>
      <point x="1087" y="684"/>
      <point x="1042" y="684" type="curve" smooth="yes"/>
    </contour>
    <contour>
      <point x="679" y="1187" type="line"/>
      <point x="679" y="1043" type="line"/>
      <point x="1087" y="1043" type="line" smooth="yes"/>
      <point x="1132" y="1043"/>
      <point x="1150" y="1063"/>
      <point x="1150" y="1115" type="curve" smooth="yes"/>
      <point x="1150" y="1167"/>
      <point x="1132" y="1187"/>
      <point x="1087" y="1187" type="curve" smooth="yes"/>
    </contour>
  </outline>
</glyph>
<glyph name="multiply" format="1">
  <advance width="1228"/>
  <unicode hex="00D7"/>
  <outline>
    <contour>
      <point x="223" y="899"/>
      <point x="222" y="872"/>
      <point x="254" y="840" type="curve" smooth="yes"/>
      <point x="872" y="222" type="line" smooth="yes"/>
      <point x="904" y="190"/>
      <point x="931" y="191"/>
      <point x="968" y="228" type="curve" smooth="yes"/>
      <point x="1005" y="265"/>
      <point x="1006" y="292"/>
      <point x="974" y="324" type="curve" smooth="yes"/>
      <point x="356" y="942" type="line" smooth="yes"/>
      <point x="324" y="974"/>
      <point x="297" y="973"/>
      <point x="260" y="936" type="curve" smooth="yes"/>
    </contour>
    <contour>
      <point x="931" y="973"/>
      <point x="904" y="974"/>
      <point x="872" y="942" type="curve" smooth="yes"/>
      <point x="254" y="324" type="line" smooth="yes"/>
      <point x="222" y="292"/>
      <point x="223" y="265"/>
      <point x="260" y="228" type="curve" smooth="yes"/>
      <point x="297" y="191"/>
      <point x="324" y="190"/>
      <point x="356" y="222" type="curve" smooth="yes"/>
      <point x="974" y="840" type="line" smooth="yes"/>
      <point x="1006" y="872"/>
      <point x="1005" y="899"/>
      <point x="968" y="936" type="curve" smooth="yes"/>
    </contour>
  </outline>
</glyph>
<glyph name="thorn" format="1">
  <advance width="1228"/>
  <unicode hex="00FE"/>
  <outline>
    <contour>
      <point x="266" y="1322" type="line" smooth="yes"/>
      <point x="210" y="1322"/>
      <point x="192" y="1303"/>
      <point x="192" y="1257" type="curve" smooth="yes"/>
      <point x="192" y="-333" type="line" smooth="yes"/>
      <point x="192" y="-379"/>
      <point x="210" y="-398"/>
      <point x="266" y="-398" type="curve" smooth="yes"/>
      <point x="268" y="-398" type="line" smooth="yes"/>
      <point x="324" y="-398"/>
      <point x="342" y="-379"/>
      <point x="342" y="-333" type="curve" smooth="yes"/>
      <point x="342" y="143" type="line"/>
      <point x="422" y="41"/>
      <point x="526" y="-22"/>
      <point x="659" y="-22" type="curve" smooth="yes"/>
      <point x="906" y="-22"/>
      <point x="1089" y="160"/>
      <point x="1089" y="462" type="curve" smooth="yes"/>
      <point x="1089" y="764"/>
      <point x="906" y="946"/>
      <point x="659" y="946" type="curve" smooth="yes"/>
      <point x="531" y="946"/>
      <point x="423" y="886"/>
      <point x="342" y="787" type="curve"/>
      <point x="342" y="1257" type="line" smooth="yes"/>
      <point x="342" y="1303"/>
      <point x="324" y="1322"/>
      <point x="268" y="1322" type="curve" smooth="yes"/>
    </contour>
    <contour>
      <point x="830" y="798"/>
      <point x="935" y="658"/>
      <point x="935" y="462" type="curve" smooth="yes"/>
      <point x="935" y="266"/>
      <point x="830" y="126"/>
      <point x="649" y="126" type="curve" smooth="yes"/>
      <point x="472" y="126"/>
      <point x="342" y="250"/>
      <point x="342" y="462" type="curve" smooth="yes"/>
      <point x="342" y="674"/>
      <point x="472" y="798"/>
      <point x="649" y="798" type="curve" smooth="yes"/>
    </contour>
  </outline>
</glyph>
<glyph name="dcaron" format="1">
  <advance width="1228"/>
  <unicode hex="010F"/>
  <outline>
    <contour>
      <point x="858" y="1322" type="line" smooth="yes"/>
      <point x="802" y="1322"/>
      <point x="784" y="1303"/>
      <point x="784" y="1257" type="curve" smooth="yes"/>
      <point x="784" y="791" type="line"/>
      <point x="716" y="888"/>
      <point x="640" y="946"/>
      <point x="517" y="946" type="curve" smooth="yes"/>
      <point x="290" y="946"/>
      <point x="137" y="764"/>
      <point x="137" y="462" type="curve" smooth="yes"/>
      <point x="137" y="160"/>
      <point x="290" y="-22"/>
      <point x="517" y="-22" type="curve" smooth="yes"/>
      <point x="640" y="-22"/>
      <point x="723" y="35"/>
      <point x="794" y="138" type="curve"/>
      <point x="794" y="55" type="line" smooth="yes"/>
      <point x="794" y="9"/>
      <point x="810" y="-10"/>
      <point x="863" y="-10" type="curve" smooth="yes"/>
      <point x="865" y="-10" type="line" smooth="yes"/>
      <point x="918" y="-10"/>
      <point x="934" y="9"/>
      <point x="934" y="55" type="curve" smooth="yes"/>
      <point x="934" y="1257" type="line" smooth="yes"/>
      <point x="934" y="1303"/>
      <point x="916" y="1322"/>
      <point x="860" y="1322" type="curve" smooth="yes"/>
    </contour>
    <contour>
      <point x="684" y="798"/>
      <point x="784" y="674"/>
      <point x="784" y="462" type="curve" smooth="yes"/>
      <point x="784" y="250"/>
      <point x="684" y="126"/>
      <point x="527" y="126" type="curve" smooth="yes"/>
      <point x="366" y="126"/>
      <point x="291" y="266"/>
      <point x="291" y="462" type="curve" smooth="yes"/>
      <point x="291" y="658"/>
      <point x="366" y="798"/>
      <point x="527" y="798" type="curve" smooth="yes"/>
    </contour>
    <component base="caron.alt" xOffset="800"/>
  </outline>
</glyph>
<glyph name="Hbar" format="1">
  <advance width="1228"/>
  <unicode hex="0126"/>
  <outline>
    <contour>
      <point x="93" y="974" type="line" smooth="yes"/>
      <point x="48" y="974"/>
      <point x="30" y="954"/>
      <point x="30" y="902" type="curve" smooth="yes"/>
      <point x="30" y="850"/>
      <point x="48" y="830"/>
      <point x="93" y="830" type="curve" smooth="yes"/>
      <point x="1135" y="830" type="line" smooth="yes"/>
      <point x="1180" y="830"/>
      <point x="1198" y="850"/>
      <point x="1198" y="902" type="curve" smooth="yes"/>
      <point x="1198" y="954"/>
      <point x="1180" y="974"/>
      <point x="1135" y="974" type="curve" smooth="yes"/>
    </contour>
    <component base="H"/>
  </outline>
</glyph>
<glyph name="dotlessi" format="1">
  <advance width="1228"/>
  <unicode hex="0131"/>
  <outline>
    <contour>
      <point x="310" y="924" type="line" smooth="yes"/>
      <point x="265" y="924"/>
      <point x="247" y="904"/>
      <point x="247" y="852" type="curve" smooth="yes"/>
      <point x="247" y="800"/>
      <point x="265" y="780"/>
      <point x="310" y="780" type="curve" smooth="yes"/>
      <point x="563" y="780" type="line"/>
      <point x="563" y="144" type="line"/>
      <point x="250" y="144" type="line" smooth="yes"/>
      <point x="205" y="144"/>
      <point x="187" y="124"/>
      <point x="187" y="72" type="curve" smooth="yes"/>
      <point x="187" y="20"/>
      <point x="205" y="0"/>
      <point x="250" y="0" type="curve" smooth="yes"/>
      <point x="1034" y="0" type="line" smooth="yes"/>
      <point x="1079" y="0"/>
      <point x="1097" y="20"/>
      <point x="1097" y="72" type="curve" smooth="yes"/>
      <point x="1097" y="124"/>
      <point x="1079" y="144"/>
      <point x="1034" y="144" type="curve" smooth="yes"/>
      <point x="713" y="144" type="line"/>
      <point x="713" y="856" type="line" smooth="yes"/>
      <point x="713" y="906"/>
      <point x="695" y="924"/>
      <point x="650" y="924" type="curve" smooth="yes"/>
    </contour>
  </outline>
</glyph>
<glyph name="IJ" format="1">
  <advance width="1228"/>
  <unicode hex="0132"/>
  <outline>
    <contour>
      <point x="978" y="1197" type="line" smooth="yes"/>
      <point x="922" y="1197"/>
      <point x="904" y="1178"/>
      <point x="904" y="1132" type="curve" smooth="yes"/>
      <point x="904" y="283" type="line" smooth="yes"/>
      <point x="904" y="170"/>
      <point x="864" y="126"/>
      <point x="782" y="126" type="curve" smooth="yes"/>
      <point x="722" y="126"/>
      <point x="658" y="142"/>
      <point x="607" y="167" type="curve" smooth="yes"/>
      <point x="579" y="181"/>
      <point x="545" y="179"/>
      <point x="522" y="125" type="curve" smooth="yes"/>
      <point x="501" y="75"/>
      <point x="512" y="47"/>
      <point x="550" y="28" type="curve" smooth="yes"/>
      <point x="617" y="-5"/>
      <point x="712" y="-22"/>
      <point x="781" y="-22" type="curve" smooth="yes"/>
      <point x="957" y="-22"/>
      <point x="1054" y="74"/>
      <point x="1054" y="253" type="curve" smooth="yes"/>
      <point x="1054" y="1132" type="line" smooth="yes"/>
      <point x="1054" y="1178"/>
      <point x="1036" y="1197"/>
      <point x="980" y="1197" type="curve" smooth="yes"/>
    </contour>
    <contour>
      <point x="253" y="1197" type="line" smooth="yes"/>
      <point x="197" y="1197"/>
      <point x="179" y="1178"/>
      <point x="179" y="1132" type="curve" smooth="yes"/>
      <point x="179" y="55" type="line" smooth="yes"/>
      <point x="179" y="9"/>
      <point x="197" y="-10"/>
      <point x="253" y="-10" type="curve" smooth="yes"/>
      <point x="255" y="-10" type="line" smooth="yes"/>
      <point x="311" y="-10"/>
      <point x="329" y="9"/>
      <point x="329" y="55" type="curve" smooth="yes"/>
      <point x="329" y="1132" type="line" smooth="yes"/>
      <point x="329" y="1178"/>
      <point x="311" y="1197"/>
      <point x="255" y="1197" type="curve" smooth="yes"/>
    </contour>
  </outline>
</glyph>
<glyph name="eng" format="1">
  <advance width="1228"/>
  <unicode hex="014B"/>
  <outline>
    <contour>
      <point x="581" y="946"/>
      <point x="430" y="842"/>
      <point x="342" y="706" type="curve"/>
      <point x="342" y="869" type="line" smooth="yes"/>
      <point x="342" y="915"/>
      <point x="326" y="934"/>
      <point x="273" y="934" type="curve" smooth="yes"/>
      <point x="271" y="934" type="line" smooth="yes"/>
      <point x="218" y="934"/>
      <point x="202" y="915"/>
      <point x="202" y="869" type="curve" smooth="yes"/>
      <point x="202" y="55" type="line" smooth="yes"/>
      <point x="202" y="9"/>
      <point x="220" y="-10"/>
      <point x="276" y="-10" type="curve" smooth="yes"/>
      <point x="278" y="-10" type="line" smooth="yes"/>
      <point x="334" y="-10"/>
      <point x="352" y="9"/>
      <point x="352" y="55" type="curve" smooth="yes"/>
      <point x="352" y="392" type="line" smooth="yes"/>
      <point x="352" y="620"/>
      <point x="541" y="798"/>
      <point x="712" y="798" type="curve" smooth="yes"/>
      <point x="841" y="798"/>
      <point x="894" y="720"/>
      <point x="894" y="605" type="curve" smooth="yes"/>
      <point x="894" y="-107" type="line" smooth="yes"/>
      <point x="894" y="-220"/>
      <point x="854" y="-264"/>
      <point x="772" y="-264" type="curve" smooth="yes"/>
      <point x="712" y="-264"/>
      <point x="648" y="-246"/>
      <point x="595" y="-224" type="curve" smooth="yes"/>
      <point x="566" y="-212"/>
      <point x="535" y="-212"/>
      <point x="512" y="-265" type="curve" smooth="yes"/>
      <point x="490" y="-315"/>
      <point x="502" y="-343"/>
      <point x="540" y="-360" type="curve" smooth="yes"/>
      <point x="608" y="-390"/>
      <point x="691" y="-410"/>
      <point x="771" y="-410" type="curve" smooth="yes"/>
      <point x="947" y="-410"/>
      <point x="1044" y="-314"/>
      <point x="1044" y="-135" type="curve" smooth="yes"/>
      <point x="1044" y="620" type="line" smooth="yes"/>
      <point x="1044" y="820"/>
      <point x="931" y="946"/>
      <point x="727" y="946" type="curve" smooth="yes"/>
    </contour>
  </outline>
</glyph>
<glyph name="Tbar" format="1">
  <advance width="1228"/>
  <unicode hex="0166"/>
  <outline>
    <contour>
      <point x="333" y="590" type="line" smooth="yes"/>
      <point x="288" y="590"/>
      <point x="270" y="570"/>
      <point x="270" y="518" type="curve" smooth="yes"/>
      <point x="270" y="466"/>
      <point x="288" y="446"/>
      <point x="333" y="446" type="curve" smooth="yes"/>
      <point x="895" y="446" type="line" smooth="yes"/>
      <point x="940" y="446"/>
      <point x="958" y="466"/>
      <point x="958" y="518" type="curve" smooth="yes"/>
      <point x="958" y="570"/>
      <point x="940" y="590"/>
      <point x="895" y="590" type="curve" smooth="yes"/>
    </contour>
    <component base="T"/>
  </outline>
</glyph>
<glyph name="dagger" format="1">
  <advance width="1228"/>
  <unicode hex="2020"/>
  <outline>
    <contour>
      <point x="562" y="1209"/>
      <point x="542" y="1191"/>
      <point x="542" y="1146" type="curve" smooth="yes"/>
      <point x="542" y="344" type="line" smooth="yes"/>
      <point x="542" y="299"/>
      <point x="562" y="281"/>
      <point x="614" y="281" type="curve" smooth="yes"/>
      <point x="666" y="281"/>
      <point x="686" y="299"/>
      <point x="686" y="344" type="curve" smooth="yes"/>
      <point x="686" y="1146" type="line" smooth="yes"/>
      <point x="686" y="1191"/>
      <point x="666" y="1209"/>
      <point x="614" y="1209" type="curve" smooth="yes"/>
    </contour>
    <contour>
      <point x="353" y="924" type="line" smooth="yes"/>
      <point x="308" y="924"/>
      <point x="290" y="904"/>
      <point x="290" y="852" type="curve" smooth="yes"/>
      <point x="290" y="800"/>
      <point x="308" y="780"/>
      <point x="353" y="780" type="curve" smooth="yes"/>
      <point x="875" y="780" type="line" smooth="yes"/>
      <point x="920" y="780"/>
      <point x="938" y="800"/>
      <point x="938" y="852" type="curve" smooth="yes"/>
      <point x="938" y="904"/>
      <point x="920" y="924"/>
      <point x="875" y="924" type="curve" smooth="yes"/>
    </contour>
  </outline>
</glyph>
<glyph name="breve.case" format="1">
  <advance width="1228"/>
  <outline>
    <contour>
      <point x="905" y="1628"/>
      <point x="890" y="1622"/>
      <point x="883" y="1608" type="curve" smooth="yes"/>
      <point x="837" y="1518"/>
      <point x="750" y="1485"/>
      <point x="614" y="1485" type="curve" smooth="yes"/>
      <point x="478" y="1485"/>
      <point x="391" y="1518"/>
      <point x="345" y="1608" type="curve" smooth="yes"/>
      <point x="338" y="1622"/>
      <point x="323" y="1628"/>
      <point x="306" y="1628" type="curve" smooth="yes"/>
      <point x="271" y="1628"/>
      <point x="229" y="1602"/>
      <point x="237" y="1568" type="curve" smooth="yes"/>
      <point x="270" y="1430"/>
      <point x="407" y="1341"/>
      <point x="614" y="1341" type="curve" smooth="yes"/>
      <point x="821" y="1341"/>
      <point x="958" y="1430"/>
      <point x="991" y="1568" type="curve" smooth="yes"/>
      <point x="999" y="1602"/>
      <point x="957" y="1628"/>
      <point x="922" y="1628" type="curve" smooth="yes"/>
    </contour>
    <contour>
      <point x="614" y="1187" type="move" name="_top"/>
    </contour>
  </outline>
</glyph>
<glyph name="dotaccent.case" format="1">
  <advance width="1228"/>
  <outline>
    <contour>
      <point x="709" y="1558" type="line" smooth="yes"/>
      <point x="709" y="1604"/>
      <point x="690" y="1623"/>
      <point x="614" y="1623" type="curve" smooth="yes"/>
      <point x="538" y="1623"/>
      <point x="519" y="1604"/>
      <point x="519" y="1558" type="curve" smooth="yes"/>
      <point x="519" y="1428" type="line" smooth="yes"/>
      <point x="519" y="1382"/>
      <point x="538" y="1363"/>
      <point x="614" y="1363" type="curve" smooth="yes"/>
      <point x="690" y="1363"/>
      <point x="709" y="1382"/>
      <point x="709" y="1428" type="curve" smooth="yes"/>
    </contour>
    <contour>
      <point x="614" y="1187" type="move" name="_top"/>
    </contour>
  </outline>
</glyph>
